<svg width="48" height="48" viewBox="0 0 48 48" fill="none" xmlns="http://www.w3.org/2000/svg">
<mask id="mask0_203_44" style="mask-type:alpha" maskUnits="userSpaceOnUse" x="0" y="0" width="48" height="48">
<rect width="48" height="48" fill="#D9D9D9"/>
</mask>
<g mask="url(#mask0_203_44)">
<path d="M8.98474 40.9999C7.92608 40.9999 7.17361 40.5102 6.72734 39.5307C6.28104 38.5513 6.42583 37.6564 7.16169 36.8462L19.4463 22.7115V9.26923H16.6155C16.2941 9.26923 16.0246 9.15956 15.8071 8.94023C15.5897 8.7209 15.4809 8.44911 15.4809 8.12488C15.4809 7.80061 15.5897 7.53208 15.8071 7.31928C16.0246 7.10645 16.2941 7.00003 16.6155 7.00003H31.3846C31.7061 7.00003 31.9756 7.10971 32.193 7.32908C32.4105 7.54841 32.5192 7.8202 32.5192 8.14443C32.5192 8.46866 32.4105 8.7372 32.193 8.95003C31.9756 9.16283 31.7061 9.26923 31.3846 9.26923H28.5539V22.7115L40.8385 36.8462C41.5744 37.6564 41.7191 38.5513 41.2728 39.5307C40.8266 40.5102 40.0741 40.9999 39.0154 40.9999H8.98474ZM8.5386 38.7307H39.4616L26.2847 23.5423V9.26923H21.7155V23.5423L8.5386 38.7307Z" fill="#1C1B1F"/>
</g>
</svg>
